<svg width="80" height="80" viewBox="0 0 80 80" fill="none" xmlns="http://www.w3.org/2000/svg">
<path d="M16.5962 32.2835C9.97656 29.6357 6.66675 28.3117 6.66675 26.6666C6.66675 25.0214 9.97656 23.6975 16.5962 21.0496L25.9577 17.305C32.5774 14.6572 35.8872 13.3333 40.0001 13.3333C44.113 13.3333 47.4228 14.6572 54.0424 17.305L63.404 21.0496C70.0236 23.6975 73.3334 25.0214 73.3334 26.6666C73.3334 28.3117 70.0236 29.6357 63.404 32.2835L54.0424 36.0281C47.4228 38.676 44.113 39.9999 40.0001 39.9999C35.8872 39.9999 32.5774 38.676 25.9577 36.0281L16.5962 32.2835Z" stroke="#D1D5DC" style="stroke:#D1D5DC;stroke:color(display-p3 0.8196 0.8353 0.8627);stroke-opacity:1;" stroke-width="5"/>
<path d="M73.3334 40C73.3334 40 70.0236 42.9691 63.404 45.6169L54.0424 49.3616C47.4228 52.0094 44.113 53.3333 40.0001 53.3333C35.8872 53.3333 32.5774 52.0094 25.9577 49.3616L16.5962 45.6169C9.97656 42.9691 6.66675 40 6.66675 40" stroke="#D1D5DC" style="stroke:#D1D5DC;stroke:color(display-p3 0.8196 0.8353 0.8627);stroke-opacity:1;" stroke-width="5" stroke-linecap="round"/>
<path d="M73.3334 53.3333C73.3334 53.3333 70.0236 56.3023 63.404 58.9502L54.0424 62.6948C47.4228 65.3427 44.113 66.6666 40.0001 66.6666C35.8872 66.6666 32.5774 65.3427 25.9577 62.6948L16.5962 58.9502C9.97656 56.3023 6.66675 53.3333 6.66675 53.3333" stroke="#D1D5DC" style="stroke:#D1D5DC;stroke:color(display-p3 0.8196 0.8353 0.8627);stroke-opacity:1;" stroke-width="5" stroke-linecap="round"/>
</svg>
